# xmcd CD database file
#
# Track frame offsets:
#	150
#	13827
#	34209
#	48502
#	64712
#	78120
#	99317
#	115630
#	136426
#	149317
#
# Disc length: 2265 seconds
#
# Revision: 0
# Processed by: cddbd v1.5.2PL0 Copyright (c) Steve Scherf et al.
# Submitted via: CDex 1.91
#
DISCID=7f08d70a
DTITLE=Various Artist - Cool Jazz
DYEAR=1900
DGENRE=Jazz
TTITLE0=Miles Davis - Boplicity
TTITLE1=John Coltrane - Harden
TTITLE2=Thelonious Monk - 'Round Midnight
TTITLE3=Lester Young - D.B. Blues (live)
TTITLE4=Chet Barker - Band Aid
TTITLE5=Dave Brubeck - In Your Own Sweet Way (live)
TTITLE6=Cannonball Adderly - You'd Be So Nice To Come Home To
TTITLE7=Art Blakey and The Jazz Messengers - Between Races
TTITLE8=Gerry Mulligan - Knights Of The Square Table
TTITLE9=Bud Shank - Misty Eyes
EXTD=
EXTT0=
EXTT1=
EXTT2=
EXTT3=
EXTT4=
EXTT5=
EXTT6=
EXTT7=
EXTT8=
EXTT9=
PLAYORDER=
